<svg width="259" height="175" viewBox="0 0 259 175" fill="none" xmlns="http://www.w3.org/2000/svg">
<g style="mix-blend-mode:multiply" opacity="0.91">
<path d="M63.3356 44.2955L67.1273 44.5225L77.3525 45.1354L92.5136 46.0433L111.01 47.1503L131.198 48.3589L151.714 49.5876L170.713 50.7253L186.827 51.6907L198.412 52.384C200.238 52.4932 202.062 52.611 203.888 52.7115L204.128 52.7259C207.065 52.9021 210.222 51.887 212.416 50.0607C213.554 49.2026 214.443 48.0569 214.992 46.7414C215.78 45.5234 216.208 44.1076 216.227 42.657C216.26 39.8673 215.461 36.9234 213.326 34.85C211.192 32.7767 208.519 31.4024 205.416 31.2157L201.624 30.9887L191.399 30.3758L176.239 29.4679L157.742 28.3609L137.553 27.1523L117.035 25.9236L98.0365 24.7859L81.9236 23.8206L70.3378 23.1272C68.5128 23.018 66.6878 22.9003 64.8619 22.7997L64.6225 22.7853C61.6858 22.6091 58.528 23.6242 56.3343 25.4505C55.1967 26.3089 54.3077 27.4545 53.7587 28.7698C52.9722 29.987 52.5444 31.4013 52.5244 32.8504C52.4909 35.6401 53.2904 38.583 55.4247 40.6564C57.559 42.7297 60.2323 44.104 63.3356 44.2955Z" fill="#F4F2FF"/>
<path d="M48.7038 126.292L52.6008 126.525L63.1133 127.154L78.6976 128.088L97.7117 129.226L118.465 130.471L139.555 131.734L159.089 132.903L175.653 133.895L187.562 134.608C189.439 134.721 191.314 134.842 193.191 134.945L193.437 134.96C196.375 135.136 199.532 134.12 201.725 132.295C202.863 131.437 203.752 130.291 204.301 128.975C205.089 127.757 205.517 126.341 205.536 124.89C205.57 122.101 204.77 119.158 202.636 117.085C200.501 115.011 197.828 113.637 194.725 113.445L190.827 113.212L180.315 112.583L164.73 111.65L145.717 110.511L124.963 109.266L103.872 108.003L84.3392 106.834L67.7744 105.841L55.865 105.129C53.9892 105.017 52.1125 104.895 50.2358 104.792L49.9897 104.778C47.0531 104.601 43.8962 105.616 41.7016 107.443C40.564 108.301 39.675 109.447 39.1259 110.762C38.3381 111.98 37.9103 113.396 37.8917 114.846C37.8572 117.636 38.6577 120.579 40.791 122.652C42.9243 124.726 45.5986 126.1 48.7029 126.292H48.7038Z" fill="#F4F2FF"/>
<path d="M51.1746 85.0072L55.0697 85.239L65.5755 85.8672L81.1512 86.8L100.152 87.9406L120.893 89.1855L141.972 90.4478L161.492 91.6171L178.047 92.6083L189.949 93.3208C191.824 93.4328 193.699 93.5544 195.575 93.6579L195.821 93.6722C198.758 93.8484 201.915 92.8333 204.109 91.007C205.247 90.1487 206.136 89.0031 206.686 87.6877C207.473 86.4694 207.901 85.0538 207.92 83.6033C207.953 80.8136 207.154 77.8697 205.019 75.7964C202.885 73.723 200.212 72.3488 197.109 72.1572L193.221 71.9274L182.715 71.2982L167.139 70.3654L148.136 69.2277L127.395 67.9827L106.315 66.7205L86.7956 65.5522L70.2404 64.561L58.3387 63.8475C56.4629 63.7355 54.5881 63.6148 52.7124 63.5114L52.4663 63.4961C49.5296 63.3208 46.3728 64.3359 44.1782 66.1613C43.0406 67.0202 42.1517 68.166 41.6025 69.4815C40.8147 70.6996 40.3869 72.1154 40.3683 73.566C40.3338 76.3556 41.1343 79.2986 43.2676 81.3719C45.4009 83.4453 48.0752 84.8195 51.1794 85.0111L51.1746 85.0072Z" fill="#F4F2FF"/>
<path d="M240.18 75.5005L242.454 75.6365L246.078 75.8529L246.907 75.9027C248.428 76.0611 249.965 75.8335 251.375 75.241C252.797 74.9054 254.111 74.2163 255.196 73.2375C256.333 72.3788 257.222 71.2333 257.771 69.9182C258.558 68.6999 258.986 67.2841 259.004 65.8338L258.765 62.9493C258.333 61.1003 257.414 59.4007 256.104 58.0269L253.886 56.2073C252.172 55.1321 250.213 54.5081 248.193 54.3935L245.919 54.2565L242.295 54.0401L241.466 53.9903C239.945 53.832 238.408 54.0596 236.998 54.652C235.576 54.988 234.263 55.6771 233.178 56.6555C232.04 57.5139 231.151 58.6594 230.602 59.9748C229.815 61.1934 229.387 62.6093 229.367 64.0602L229.608 66.9466C230.04 68.7957 230.959 70.4954 232.27 71.869L234.488 73.6886C236.202 74.7653 238.16 75.3913 240.181 75.5082L240.18 75.5005Z" fill="#F4F2FF"/>
<path d="M19.0397 62.3619L24.2102 62.6722L38.1562 63.5073L58.8316 64.7417L84.057 66.253L111.589 67.9021L139.57 69.577L165.481 71.1294L187.457 72.4452L203.256 73.3905C205.745 73.5399 208.235 73.7036 210.724 73.8377L211.051 73.8578C213.987 74.0331 217.145 73.0189 219.339 71.1926C221.438 69.4458 223.116 66.4751 223.149 63.7879C223.183 60.9982 222.383 58.0553 220.249 55.982C218.116 53.9086 215.442 52.5343 212.337 52.3428L207.167 52.0335L193.224 51.2041L172.542 49.9659L147.316 48.4556L119.784 46.8065L91.807 45.1316L65.896 43.5773L43.9204 42.2643L28.1216 41.3181C25.6321 41.1687 23.1426 41.005 20.6531 40.8709L20.3266 40.8517C17.389 40.6755 14.2321 41.6907 12.0375 43.5169C9.93958 45.2628 8.26012 48.2344 8.22757 50.9207C8.19406 53.7104 8.99357 56.6533 11.1278 58.7266C13.2621 60.8 15.9355 62.1742 19.0387 62.3658L19.0397 62.3619Z" fill="#F4F2FF"/>
<path d="M27.5662 104.311L33.1092 104.643L48.0587 105.542L70.2229 106.869L97.2647 108.488L126.776 110.251L156.771 112.048L184.548 113.711L208.102 115.121L225.04 116.135C227.708 116.295 230.376 116.471 233.045 116.614L233.395 116.635C236.332 116.81 239.489 115.796 241.684 113.97C243.782 112.223 245.461 109.253 245.494 106.565C245.527 103.776 244.728 100.833 242.594 98.7594C240.461 96.686 237.787 95.3118 234.683 95.1202L229.14 94.7889L214.196 93.8982L192.031 92.5709L164.99 90.9515L135.476 89.1846L105.48 87.388L77.703 85.7255L54.1484 84.3148L37.2092 83.3007C34.5407 83.1407 31.8731 82.9645 29.2035 82.8218C29.0867 82.8161 28.9699 82.8084 28.8531 82.8008C25.9164 82.6255 22.7586 83.6397 20.5649 85.466C18.4661 87.2118 16.7876 90.1825 16.7589 92.8697C16.7244 95.6594 17.5249 98.6023 19.6582 100.676C21.7915 102.749 24.4658 104.123 27.57 104.315L27.5662 104.311Z" fill="#F4F2FF"/>
<path d="M71.5738 148.377L75.4689 148.61L85.9746 149.239L101.549 150.172L120.552 151.314L141.292 152.559L162.371 153.821L181.891 154.99L198.444 155.981L210.346 156.694C212.221 156.806 214.096 156.928 215.972 157.031L216.217 157.045C219.155 157.222 222.312 156.206 224.506 154.38C225.644 153.521 226.532 152.376 227.082 151.061C227.869 149.843 228.297 148.427 228.316 146.976C228.35 144.187 227.55 141.243 225.417 139.17C223.283 137.096 220.609 135.722 217.505 135.53L213.61 135.298L203.104 134.668L187.529 133.736L168.523 132.594L147.782 131.349L126.705 130.087L107.185 128.919L90.631 127.927L78.7292 127.215C76.8544 127.102 74.9796 126.981 73.1039 126.878L72.8578 126.863C69.9202 126.687 66.7633 127.702 64.5697 129.529C63.4315 130.387 62.5425 131.532 61.994 132.848C61.2059 134.066 60.7778 135.482 60.7588 136.932C60.7253 139.722 61.5248 142.665 63.6591 144.738C65.7934 146.812 68.4667 148.186 71.57 148.377L71.5738 148.377Z" fill="#F4F2FF"/>
<path d="M10.8112 144.741L12.4542 144.836L16.3695 145.071L21.133 145.358L25.2273 145.604L27.2304 145.723H27.2582C28.7797 145.881 30.3166 145.653 31.7268 145.061C33.1481 144.725 34.4618 144.036 35.5463 143.058C36.6843 142.2 37.5733 141.054 38.122 139.738C38.9101 138.52 39.3382 137.104 39.3572 135.653L39.1188 132.77C38.687 130.921 37.7678 129.221 36.4569 127.847L34.2393 126.028C32.5256 124.95 30.567 124.324 28.546 124.208L26.9058 124.118L22.9896 123.884L18.227 123.596L14.1289 123.352L12.1268 123.232H12.099C10.5775 123.074 9.04066 123.302 7.63034 123.894C6.20856 124.23 4.89448 124.919 3.8099 125.898C2.67228 126.756 1.78334 127.902 1.23422 129.217C0.446803 130.434 0.0189934 131.85 0 133.299L0.238418 136.185C0.670198 138.034 1.58934 139.734 2.90028 141.107L5.11785 142.927C6.83203 144.003 8.79065 144.627 10.8112 144.742V144.741Z" fill="#F4F2FF"/>
<path d="M81.2262 24.6526L85.3904 24.9016L96.62 25.572L113.267 26.5718L133.58 27.7881L155.753 29.1183L178.282 30.4647L199.147 31.7097L216.843 32.7699L229.565 33.5312C231.57 33.6519 233.574 33.7812 235.579 33.8913L235.842 33.9076C238.779 34.0828 241.936 33.0677 244.131 31.2424C245.268 30.3834 246.157 29.2376 246.707 27.9221C247.494 26.7041 247.922 25.2882 247.941 23.8377C247.974 21.048 247.175 18.1051 245.041 16.0317C242.906 13.9584 240.233 12.5841 237.13 12.3926L232.965 12.1436L221.736 11.4732L205.092 10.482L184.777 9.26482L162.606 7.93749L140.077 6.58813L119.211 5.34316L101.513 4.27919L88.7905 3.51306C86.7855 3.39335 84.7814 3.26311 82.7764 3.15297L82.5141 3.13669C79.5765 2.96144 76.4196 3.97657 74.2259 5.80189C73.088 6.6607 72.1988 7.80656 71.6493 9.12213C70.8619 10.3404 70.4341 11.7561 70.4151 13.2066C70.3816 15.9963 71.1811 18.9392 73.3153 21.0125C75.4496 23.0859 78.123 24.4602 81.2262 24.6517V24.6526Z" fill="#F4F2FF"/>
<path d="M29.608 21.5606L30.8796 21.6372L33.934 21.8202L37.629 22.0414L40.8242 22.2329L42.3782 22.3287H42.4003C43.9217 22.4869 45.4586 22.2593 46.8689 21.6669C48.2904 21.3313 49.6042 20.6422 50.6884 19.6635C51.8258 18.8048 52.7147 17.6593 53.2641 16.3442C54.0512 15.1269 54.479 13.7122 54.4983 12.2626C54.4192 11.3011 54.34 10.3396 54.2609 9.37811C53.8281 7.52934 52.9091 5.82987 51.599 4.45569L49.3814 2.63612C47.6671 1.55902 45.7083 0.933083 43.6872 0.816552L42.4165 0.739938L39.3621 0.557023L35.6662 0.335802L32.471 0.144268C31.953 0.113623 31.4349 0.0810617 30.9169 0.048501H30.8959C29.3739 -0.109181 27.8368 0.11906 26.4263 0.712166C25.0048 1.04775 23.691 1.73686 22.6068 2.71561C21.469 3.57507 20.5801 4.72161 20.0311 6.03776C19.2434 7.25588 18.8156 8.67167 18.7969 10.1222C18.8767 11.0837 18.9558 12.0449 19.0343 13.0058C19.4669 14.8546 20.3859 16.5541 21.6962 17.9282L23.9138 19.7478C25.6286 20.8228 27.5874 21.4468 29.608 21.5616V21.5606Z" fill="#F4F2FF"/>
</g>
<g style="mix-blend-mode:multiply">
<path d="M189.082 46.53C186.873 49.925 182.233 52.2579 178.702 53.8361L180.889 54.1962C180.941 54.1789 180.993 54.1607 181.047 54.1454C182.926 53.611 184.967 54.6769 186.159 56.2255C187.625 58.1284 188.5 60.8912 188.489 63.294C188.476 66.7953 186.844 70.2027 184.245 72.8391C182.569 74.5399 180.25 76.3452 177.734 76.3183L178.473 76.734C178.866 76.5085 179.29 76.3451 179.732 76.2494C181.781 75.8136 184.058 77.0261 185.418 78.678C187.089 80.7102 188.137 83.5813 188.203 86.0358C188.299 89.6079 186.61 92.9894 183.836 95.5254C182.245 96.98 180.102 98.4865 177.701 98.678L177.748 98.7288C177.872 98.6991 177.998 98.6722 178.124 98.655C179.953 98.4022 182.205 100.233 182.872 101.9C183.693 103.945 183.755 106.739 183.117 109.063C182.188 112.447 179.132 115.001 176.105 117.184C174.33 118.465 172.055 119.756 169.961 119.695L166.96 143.158C166.937 143.334 166.914 143.509 166.895 143.685C166.876 143.86 166.847 144.04 166.824 144.217C166.793 144.494 166.756 144.772 166.721 145.052L166.716 145.083C166.678 145.401 166.635 145.718 166.591 146.033C166.023 150.269 163.269 153.817 159.404 155.29C157.819 155.899 156.11 156.113 154.425 155.914L142.72 154.414C133.401 162.259 129.277 164.853 122.213 171.167C121.237 171.157 120.265 171.13 119.298 171.084C98.8618 170.126 80.111 161.349 66.3594 147.42C68.3213 143.894 69.7968 140.486 70.5906 137.328C72.9671 127.852 72.5018 117.605 73.3501 106.656C75.4748 79.5035 73.6642 57.707 78.558 51.892C80.2441 49.8982 84.8545 48.6589 88.8214 42.436C88.9392 42.2502 89.056 42.0587 89.1728 41.8614C89.2504 41.734 89.326 41.6047 89.4017 41.4726C89.4457 41.4008 89.4878 41.3261 89.529 41.2523C89.6363 41.0608 89.7454 40.8693 89.8507 40.6672C89.8776 40.6183 89.9025 40.5714 89.9273 40.5235C89.9982 40.3885 90.07 40.2554 90.137 40.1251C90.1849 40.0294 90.2328 39.9403 90.2768 39.8493L90.4099 39.5869C90.4597 39.4854 90.5057 39.3868 90.5574 39.2862C90.5938 39.2128 90.6292 39.14 90.6637 39.0679C90.7154 38.9606 90.7661 38.8562 90.815 38.7518C90.8389 38.6992 90.8638 38.6484 90.8877 38.5967C91.0792 38.1887 91.2576 37.791 91.423 37.4035C91.4316 37.3843 91.4392 37.3661 91.4469 37.3469L91.6125 36.9553C91.6202 36.939 91.6269 36.9217 91.6346 36.9055C92.5432 34.7287 93.1063 32.9359 93.7066 31.5425C93.7125 31.5311 93.7176 31.5192 93.7219 31.5071C93.7641 31.4113 93.8043 31.3213 93.8464 31.2313C93.8521 31.215 93.8608 31.1978 93.8684 31.1815C93.9106 31.0857 93.9546 30.9995 93.9967 30.9114C94.0025 30.9028 94.0073 30.8923 94.012 30.8836C94.0609 30.7879 94.1078 30.6921 94.1605 30.5963C94.1599 30.5928 94.1599 30.5893 94.1605 30.5858C94.2074 30.5015 94.2562 30.4192 94.2993 30.3397C94.3127 30.3167 94.3261 30.2937 94.3414 30.2698C94.3769 30.2104 94.4142 30.151 94.4525 30.0926C94.4669 30.0677 94.4841 30.0418 94.5013 30.016L94.6153 29.8532C94.6316 29.8312 94.6469 29.8072 94.6641 29.7861C94.7158 29.7143 94.7685 29.6454 94.8231 29.5802L94.8317 29.5688C94.8623 29.5324 94.892 29.4969 94.9217 29.4596C94.9514 29.4222 94.983 29.3954 95.0126 29.3638C95.0169 29.3605 95.0208 29.3566 95.0241 29.3523C95.0883 29.2843 95.1524 29.2192 95.2156 29.1608C95.2501 29.1292 95.2846 29.0976 95.321 29.065L95.3602 29.0363C95.4445 28.9664 95.5326 28.8965 95.6254 28.8333C95.6475 28.817 95.6714 28.8007 95.6953 28.7863C95.7863 28.727 95.8801 28.6705 95.9759 28.6187C95.9931 28.6111 96.0075 28.5996 96.0247 28.59C96.0678 28.567 96.1119 28.545 96.1549 28.5239C96.2785 28.4674 96.4039 28.4157 96.5322 28.3688L96.6279 28.3353L96.7754 28.2817C96.8453 28.2596 96.9123 28.2386 96.9822 28.2194H96.9956C97.0627 28.2002 97.1326 28.1821 97.2005 28.1658C97.3442 28.1303 97.4878 28.1007 97.6352 28.0796C97.7099 28.0671 97.7817 28.0556 97.8564 28.048C103.325 27.3872 104.762 33.6915 104.433 40.1204C104.449 40.1001 104.467 40.0817 104.488 40.0658L104.512 40.0495C104.512 40.0495 104.512 40.0495 104.518 40.0447C104.625 39.9652 104.759 39.9308 104.891 39.9489C105.048 39.9683 105.201 40.0096 105.346 40.0715C105.348 40.0721 105.35 40.0723 105.351 40.0721C105.353 40.072 105.355 40.0714 105.357 40.0705C105.358 40.0696 105.36 40.0684 105.361 40.0669C105.362 40.0654 105.363 40.0637 105.363 40.0619L106.162 33.454C106.162 33.4454 106.162 33.4406 106.146 33.4397C106.076 33.45 106.004 33.4558 105.933 33.4569C105.916 33.4569 105.898 33.4569 105.879 33.4569C105.733 33.4475 105.595 33.3816 105.496 33.273C105.448 33.2173 105.412 33.1517 105.391 33.0808C105.37 33.01 105.364 32.9354 105.375 32.8622L106.319 25.5121C106.326 25.4448 106.347 25.3796 106.38 25.3204C106.413 25.2612 106.457 25.2092 106.51 25.1673C106.62 25.0853 106.757 25.0468 106.893 25.0591C106.932 25.0613 106.971 25.068 107.008 25.0792C107.078 25.0969 107.146 25.1193 107.213 25.1462C107.219 25.1462 107.227 25.1462 107.228 25.1367L108.247 17.2579C108.354 16.3801 108.522 15.5108 108.748 14.6559C108.914 14.0279 109.127 13.4133 109.386 12.8172C109.791 11.873 110.335 10.9947 111 10.2114C113.298 7.50598 116.703 6.05798 120.121 6.34432C120.498 6.37593 120.862 6.42668 121.216 6.47457C121.352 6.49372 121.485 6.51192 121.62 6.52915L172.129 13.0001C172.2 13.0107 172.273 13.0183 172.343 13.0289C173.74 13.2204 174.787 13.5077 175.745 13.9463C178.826 15.3704 181.107 18.2874 181.854 21.7475C182.266 23.6504 182.026 25.492 181.817 27.1181L180.782 35.2343C185.429 35.0016 188.265 35.5954 189.755 39.4184C190.836 42.1937 190.378 44.5457 189.082 46.53Z" fill="#F0F0F0"/>
</g>
<path d="M119.211 174.992C128.792 165.033 137.437 156.222 141.322 152.955C141.634 152.693 141.954 152.422 142.279 152.146C143.061 151.482 143.882 150.779 144.741 150.039C145.118 149.714 145.503 149.381 145.896 149.04C149.122 146.232 156.697 141.187 163.313 133.544C164.019 132.728 164.717 131.882 165.395 131.006C165.367 130.678 165.336 130.352 165.309 130.026C165.088 127.345 164.943 124.663 164.793 121.988C164.684 120.04 164.574 118.092 164.426 116.147C164.401 115.817 164.376 115.489 164.349 115.159C164.245 113.83 164.13 112.501 164.002 111.173C163.883 109.932 163.759 108.691 163.628 107.45C163.038 101.882 162.324 96.3267 161.634 90.7693C161.587 90.3862 161.539 90.0032 161.493 89.6201C161.266 87.7718 161.043 85.9232 160.822 84.0742C160.445 80.8182 160.097 77.5506 159.809 74.2821C159.783 74.0024 159.759 73.7209 159.736 73.4403C159.714 73.1849 159.693 72.9295 159.672 72.6741C159.172 66.6514 158.834 60.5223 158.945 54.4133C158.945 54.2783 158.945 54.1423 158.953 54.0073C158.986 52.4635 159.05 50.9229 159.145 49.3855C159.288 47.0728 159.509 44.7686 159.822 42.4788C158.16 41.9235 156.465 41.471 154.747 41.1237C137.991 37.7125 119.189 43.7535 115.925 53.063C115.676 53.7599 115.53 54.4893 115.491 55.2283C115.322 58.5495 117.406 61.6648 120.087 65.3614C117.003 67.5975 113.81 70.8852 110.837 73.9593C107.283 77.6349 104.039 81.0068 101.683 81.9166C100.821 82.2489 100.081 82.2547 99.4809 81.8285C99.4133 81.7826 99.3493 81.7317 99.2894 81.6762C98.978 81.3746 98.7343 81.0103 98.5741 80.6075C98.2581 79.8796 98.0312 78.8693 97.9039 77.5353C97.3811 71.8793 96.075 67.1216 96.1804 64.0877C96.186 63.5178 96.2793 62.9522 96.4571 62.4108C96.548 62.1484 96.6438 61.8898 96.7443 61.636C99.2223 55.2197 100.938 50.6851 101.958 46.2702C102.509 43.9098 102.862 41.5072 103.011 39.0877C103.02 38.9441 103.028 38.8004 103.035 38.6558C103.367 32.227 101.93 25.9188 96.4619 26.5834C96.3862 26.5911 96.3144 26.6026 96.2397 26.615C96.0932 26.6361 95.9525 26.6658 95.805 26.7012C95.6576 26.7367 95.5178 26.775 95.3808 26.82C95.1704 26.8884 94.9641 26.9693 94.7633 27.0623L94.633 27.1284C94.3806 27.2595 94.1446 27.4202 93.9302 27.6072C93.8938 27.6369 93.8594 27.6685 93.8249 27.703C93.7215 27.7987 93.6229 27.8945 93.5262 28.0065C93.4946 28.0439 93.4649 28.0793 93.4304 28.1186C91.8276 30.054 91.3373 33.8158 88.4514 39.2113C88.1986 39.6834 87.9401 40.1335 87.6854 40.5587C87.5983 40.6995 87.5121 40.8393 87.425 40.9762C83.4561 47.2011 78.8496 48.4384 77.1663 50.4323C72.2725 56.2472 74.0822 78.0438 71.9584 105.197C71.1034 116.148 71.5678 126.396 69.1903 135.866C68.7115 137.781 51.1624 158.337 37 174.991L119.211 174.992Z" fill="#FFC696"/>
<path d="M104.586 153.445C104.586 153.445 107.512 155.973 110.009 157.204C113.962 159.153 118.416 158.755 118.416 158.755C118.416 158.755 114.516 158.031 110.996 156.552C107.648 155.146 104.586 153.445 104.586 153.445Z" fill="#E3B086"/>
<path d="M80.9844 130.332C80.9844 130.332 83.5342 136.334 86.6557 140.163C91.5973 146.222 99.8165 149.428 99.8165 149.428C99.8165 149.428 93.7163 145.118 89.0533 140.087C84.6152 135.295 80.9844 130.332 80.9844 130.332Z" fill="#E3B086"/>
<path d="M164.558 118.109C163.107 117.62 161.67 117.129 160.275 116.642C148.785 112.629 141.039 109.327 140.742 109.211C141.002 109.343 146.452 112.603 154.626 115.618C157.69 116.747 161.137 117.886 164.617 118.97C164.596 118.683 164.577 118.396 164.558 118.109Z" fill="#E3B086"/>
<path d="M87.4219 40.974C93.0635 40.3764 97.4833 37.3847 98.2417 33.1211C98.639 30.8678 97.9544 28.599 96.4674 26.5898C95.8795 26.6575 95.3063 26.8192 94.7697 27.0687C91.9355 28.4037 92.015 32.5686 88.4579 39.209C88.1189 39.8411 87.7752 40.4243 87.4219 40.974Z" fill="#FFDABD"/>
<path d="M87.1357 58.0906C88.6237 59.2398 92.7572 62.3283 96.1975 64.0923C96.2029 63.5219 96.296 62.9557 96.4733 62.4135C96.5691 62.1521 96.6648 61.8926 96.7606 61.6397C94.3974 60.8209 91.6657 59.869 91.4081 59.755L87.2535 57.9441C87.1434 57.8972 87.0304 58.0188 87.1357 58.0906Z" fill="#E3B086"/>
<path d="M173.904 53.8927C178.117 51.8442 192.008 47.3183 188.362 37.958C186.841 34.0527 183.918 33.5183 179.091 33.7903C173.217 34.1197 156.712 36.5675 153.379 42.914C150.736 47.9523 158.268 53.6399 161.901 56.2476C164.799 58.3257 168.933 56.3146 173.904 53.8927Z" fill="#FFC696"/>
<path d="M180.645 52.93L155.492 48.7891L158.563 75.0464L178.454 62.9022L180.645 52.93Z" fill="#E3B086"/>
<path d="M180.984 102.042L164.271 84.7969L151.867 106.391L173.733 108.36L180.984 102.042Z" fill="#E3B086"/>
<path d="M183.398 78.8139L161.156 66.3594L155.109 92.0948L177.945 87.4453L183.398 78.8139Z" fill="#E3B086"/>
<g style="mix-blend-mode:multiply">
<path d="M179.424 56.0535L179.403 56.0305C179.282 55.9017 179.142 55.7925 178.988 55.7068L179.092 54.9033L179.115 54.7118L181.337 37.6519L181.46 36.7143L182.485 28.8442C182.691 27.2573 182.95 25.2817 182.512 23.2361C181.72 19.5175 179.265 16.3763 175.943 14.8325C174.897 14.3537 173.778 14.0444 172.32 13.8413L172.11 13.8126L123.103 7.45178L122.967 7.43358L122.722 7.40007L122.66 7.39145C122.508 7.37038 122.352 7.34835 122.195 7.32824C121.968 7.29951 121.775 7.2794 121.591 7.26312C117.899 6.94709 114.218 8.4966 111.739 11.4089C110.61 12.7372 109.814 14.2953 109.307 16.1694C109.072 17.0501 108.897 17.9461 108.786 18.8509L107.908 25.5278C107.775 25.5835 107.65 25.6566 107.536 25.7452C107.185 26.0178 106.956 26.4176 106.898 26.858L105.971 33.9907C105.94 34.2263 105.96 34.4657 106.029 34.6932C106.097 34.9206 106.213 35.1309 106.369 35.3104C106.442 35.3941 106.524 35.4704 106.612 35.5383L106.076 39.912C106.008 39.9339 105.941 39.9601 105.876 39.9905L105.588 40.048L105.404 40.3142C105.381 40.3372 105.357 40.3611 105.335 40.386L105.325 40.3966C105.097 40.6502 104.952 40.9672 104.909 41.3054L103.982 48.4113L103.105 55.1533C103.076 55.3719 103.091 55.594 103.149 55.8068C103.206 56.0196 103.305 56.219 103.44 56.3935C103.517 56.4946 103.606 56.5868 103.704 56.6683C103.658 56.6896 103.613 56.7133 103.569 56.7392L103.505 56.7622L103.35 56.8876C103.011 57.1598 102.791 57.553 102.737 57.9841L100.932 71.8407C100.878 72.2789 100.999 72.7208 101.269 73.0703C101.391 73.2306 101.54 73.3681 101.71 73.4764L94.92 125.46C94.8846 125.736 94.8472 126.009 94.8099 126.286L94.7735 126.566C94.7496 126.748 94.7266 126.931 94.7017 127.112L94.5954 127.937C94.5542 128.244 94.5198 128.512 94.491 128.741C93.771 134.346 96.7 139.678 101.614 141.708C102.866 142.228 104.142 142.451 105.116 142.586C105.243 142.604 105.37 142.62 105.499 142.636C105.882 142.684 106.257 142.732 106.598 142.766C106.939 142.799 107.245 142.837 107.536 142.875L143.73 147.576L155.089 149.051H155.096C156.92 149.272 158.771 149.043 160.487 148.385C164.643 146.811 167.608 143.015 168.224 138.48C168.271 138.134 168.311 137.844 168.346 137.567V137.538L168.383 137.244C168.406 137.064 168.429 136.885 168.451 136.706C168.474 136.534 168.496 136.36 168.518 136.187C168.54 136.015 168.561 135.859 168.584 135.694L172.094 108.741L172.141 108.392L172.918 102.386L173.651 96.7171L174.034 93.7981L174.539 89.8908L174.689 88.7359L175.804 80.1322L175.854 80.1178C176.039 80.0691 176.214 79.9866 176.369 79.8745L176.385 79.864L176.425 79.8324C176.755 79.5805 176.978 79.2136 177.049 78.8048L177.055 78.7761L177.359 76.4442L177.414 76.0084L177.828 72.8184L178.707 66.0765L178.868 64.8468L179.839 57.3923C179.87 57.1525 179.85 56.9086 179.778 56.6775C179.707 56.4464 179.586 56.2336 179.424 56.0535Z" fill="#C6C6C6"/>
</g>
<path d="M141.8 146.42L105.606 141.719C105.319 141.681 105.009 141.646 104.668 141.609C104.327 141.573 103.949 141.528 103.57 141.48L103.187 141.429C102.213 141.293 100.938 141.071 99.6842 140.552C94.7703 138.522 91.8413 133.189 92.5613 127.583C92.5901 127.353 92.6245 127.087 92.6657 126.781L92.772 125.955C92.7969 125.773 92.8199 125.591 92.8438 125.409L92.8802 125.129C92.9175 124.853 92.9549 124.579 92.9903 124.303L99.7838 72.3211C99.6141 72.2128 99.465 72.0753 99.3433 71.915C99.0736 71.5655 98.9525 71.1236 99.0063 70.6854L100.811 56.8289C100.865 56.3976 101.085 56.0044 101.424 55.7323L101.579 55.6069L101.643 55.5839C101.687 55.558 101.732 55.5344 101.778 55.513C101.56 55.3308 101.39 55.0967 101.285 54.832C101.181 54.5673 101.144 54.2805 101.179 53.998L102.057 47.256L102.983 40.1501C103.026 39.8119 103.171 39.4949 103.399 39.2413L103.409 39.2307C103.431 39.2058 103.455 39.1819 103.478 39.1589L103.663 38.8927L103.95 38.8352C104.015 38.8044 104.082 38.7782 104.15 38.7567L104.686 34.383C104.598 34.3151 104.516 34.2388 104.443 34.1551C104.288 33.9755 104.172 33.7652 104.103 33.5378C104.034 33.3104 104.015 33.071 104.045 32.8354L104.972 25.7017C105.03 25.2616 105.26 24.8621 105.61 24.5899C105.724 24.5011 105.849 24.4277 105.983 24.3715L106.859 17.6947C106.971 16.7898 107.145 15.8938 107.382 15.0132C107.887 13.139 108.683 11.5809 109.812 10.2526C112.29 7.34035 115.973 5.79084 119.664 6.10687C119.848 6.12219 120.041 6.14326 120.269 6.17199L120.733 6.23424L120.795 6.24286L121.04 6.27733L121.176 6.29553L170.183 12.6612L170.393 12.6899C171.851 12.8929 172.97 13.1984 174.016 13.6811C177.339 15.2248 179.794 18.366 180.586 22.0846C181.023 24.1292 180.765 26.1068 180.558 27.6927L179.533 35.5629L179.411 36.5004L177.189 53.5603L177.165 53.7471L177.061 54.5506C177.215 54.6362 177.355 54.7451 177.476 54.8733L177.498 54.8972C177.659 55.0776 177.78 55.2909 177.851 55.5224C177.922 55.7539 177.942 55.998 177.909 56.238L176.936 63.6906L176.775 64.9202L175.896 71.6622L175.481 74.8522L175.426 75.2879L175.122 77.6199L175.116 77.6486C175.045 78.0573 174.823 78.4243 174.493 78.6762L174.453 78.7068L174.436 78.7183C174.283 78.8304 174.11 78.9135 173.927 78.9635L173.877 78.9778L172.763 87.5815L172.612 88.7365L172.107 92.6438L171.724 95.5627L170.99 101.231L170.213 107.237L170.166 107.585L166.656 134.54C166.633 134.705 166.612 134.868 166.591 135.033C166.57 135.198 166.547 135.38 166.524 135.552C166.501 135.725 166.479 135.909 166.456 136.089L166.418 136.383V136.413C166.383 136.689 166.345 136.98 166.296 137.326C165.68 141.86 162.716 145.657 158.559 147.231C156.844 147.89 154.993 148.12 153.168 147.901H153.162L141.8 146.42ZM143.034 143.306L153.578 144.675C154.965 144.843 156.372 144.65 157.662 144.114C160.6 142.91 162.696 140.118 163.138 136.829L163.17 136.597C163.196 136.386 163.223 136.176 163.252 135.965V135.944C163.27 135.815 163.287 135.686 163.304 135.561V135.55C163.323 135.412 163.341 135.279 163.357 135.148C163.394 134.861 163.549 133.698 163.584 133.396C163.661 132.811 163.736 132.229 163.812 131.644L163.935 130.708L164.148 129.047C164.22 128.494 164.293 127.942 164.365 127.39L166.266 112.888L166.969 107.463L167.005 107.197L167.675 101.993L168.633 94.6281L169.185 90.3693L169.415 88.6091L169.449 88.3525L171.286 74.1924L171.371 73.5507L171.888 69.6281L172.376 65.874L173.532 56.9869L173.939 53.8419L174.034 53.1227L176.321 35.5188L176.347 35.3158L177.36 27.5156C177.369 27.4294 177.382 27.3441 177.394 27.257C177.407 27.1698 177.414 27.0942 177.426 27.0128V26.9917C177.566 25.9661 177.713 24.905 177.617 23.8429C177.324 20.5868 175.262 17.7014 172.363 16.5005C172.067 16.3791 171.763 16.2777 171.454 16.1969C171.176 16.1231 170.879 16.059 170.543 16.0053C170.447 15.9881 170.346 15.9718 170.249 15.9575H170.236C170.14 15.9421 170.044 15.9297 169.958 15.9172L170.349 15.9651L121.576 9.62822L120.825 9.53245L120.597 9.50181L120.494 9.48744L119.869 9.40604H119.847L119.745 9.39359H119.725C119.429 9.35818 119.133 9.33836 118.835 9.33422C118.776 9.33422 118.715 9.33422 118.654 9.33422C118.548 9.33422 118.432 9.33422 118.311 9.34571C118.175 9.35337 118.029 9.3639 117.881 9.37923H117.866C117.832 9.37923 117.798 9.38593 117.765 9.39072H117.745C117.515 9.41753 117.282 9.45584 117.053 9.50276C116.969 9.52 116.883 9.53916 116.786 9.5631C116.689 9.58704 116.595 9.61002 116.508 9.63397C115.372 9.94858 114.315 10.4944 113.4 11.2371C113.246 11.3616 113.101 11.4871 112.968 11.6096C112.917 11.6566 112.863 11.7054 112.812 11.7581C112.71 11.8538 112.611 11.9563 112.507 12.0674C112.46 12.1182 112.411 12.1727 112.362 12.2283C112.196 12.4141 112.039 12.6114 111.892 12.8029C111.839 12.9868 111.701 13.5556 111.414 15.2114C109.741 24.7086 105.329 56.8135 101.922 82.073C98.6884 106.034 96.4823 122.576 96.2774 124.15C96.2774 124.183 96.2697 124.215 96.263 124.246C95.5468 129.553 95.8417 131.667 96.5063 133.199L96.5656 133.328C96.5857 133.372 96.6068 133.417 96.6279 133.461C96.6834 133.577 96.7303 133.67 96.7763 133.755L96.783 133.766C97.0202 134.213 97.2957 134.638 97.6064 135.037C98.0196 135.567 98.4969 136.045 99.0274 136.458C99.1739 136.574 99.3213 136.681 99.4668 136.779C99.5741 136.851 99.6785 136.918 99.7761 136.977C99.8738 137.037 99.981 137.099 100.09 137.16C100.171 137.203 100.252 137.247 100.333 137.288C100.583 137.416 100.838 137.53 101.099 137.631C101.254 137.692 101.41 137.746 101.578 137.8L101.757 137.853C101.949 137.91 102.153 137.962 102.353 138.007C102.459 138.031 102.569 138.054 102.68 138.076C102.797 138.098 102.917 138.121 103.039 138.142C103.231 138.175 103.422 138.204 103.606 138.23L103.925 138.273C104.331 138.324 104.733 138.369 105.074 138.401L105.273 138.422C105.572 138.455 105.854 138.485 106.135 138.518L143.034 143.306Z" fill="black"/>
<path d="M178.781 23.7287C178.449 20.0397 176.1 16.777 172.807 15.4104C172.464 15.2697 172.113 15.1516 171.754 15.057C171.407 14.9612 171.066 14.8942 170.741 14.8386C170.632 14.8195 170.526 14.8032 170.421 14.786C170.317 14.7687 170.213 14.7544 170.112 14.741L169.818 14.7026L121.04 8.36575C120.913 8.35043 120.786 8.33223 120.657 8.31404L120.014 8.22976L119.86 8.21061C119.524 8.17001 119.186 8.14795 118.847 8.14453H118.64C118.505 8.14453 118.37 8.15028 118.238 8.15794C118.077 8.1656 117.917 8.17901 117.76 8.19433C117.706 8.19433 117.653 8.20582 117.599 8.21348C117.335 8.24509 117.071 8.28722 116.811 8.34181C116.706 8.36192 116.603 8.38682 116.5 8.41172C116.396 8.43662 116.293 8.46344 116.189 8.49025C114.899 8.84925 113.697 9.46848 112.655 10.3098C112.488 10.4458 112.325 10.5866 112.165 10.7331C112.106 10.7877 112.046 10.8442 111.988 10.9007C111.871 11.0143 111.756 11.1312 111.643 11.2512C111.588 11.3115 111.532 11.3728 111.478 11.4341C111.259 11.6793 111.052 11.9388 110.856 12.2079C110.852 12.2141 110.848 12.2199 110.844 12.2252C110.211 13.1073 109.738 14.0941 109.448 15.1403C109.137 16.1937 108.927 17.4052 108.731 18.8934L100.562 81.7548L94.477 128.475C94.3017 129.856 94.6129 131.865 95.423 133.667L95.4622 133.752C95.4938 133.821 95.5245 133.892 95.558 133.96C95.6145 134.079 95.6719 134.195 95.7342 134.308C96.0033 134.813 96.3157 135.293 96.6677 135.744C97.1411 136.352 97.6879 136.899 98.2955 137.372C98.4583 137.501 98.6277 137.623 98.801 137.74C98.915 137.818 99.0337 137.892 99.1524 137.966C99.2712 138.04 99.3928 138.108 99.5144 138.176C99.6101 138.226 99.6992 138.276 99.794 138.323C100.075 138.466 100.366 138.596 100.664 138.712C100.844 138.781 101.029 138.847 101.224 138.904L101.415 138.963C101.629 139.025 101.851 139.082 102.085 139.135C102.203 139.161 102.325 139.187 102.447 139.212L102.83 139.281C103.022 139.315 103.227 139.346 103.438 139.377C103.96 139.449 104.484 139.505 104.948 139.552C105.368 139.597 105.744 139.637 106.11 139.685L142.878 144.464L153.428 145.832C155.016 146.026 156.627 145.805 158.104 145.19C161.428 143.828 163.801 140.68 164.296 136.975L164.328 136.739C164.355 136.533 164.381 136.324 164.41 136.113C164.428 135.975 164.447 135.835 164.466 135.698C164.484 135.561 164.502 135.423 164.521 135.287C164.596 134.703 164.671 134.12 164.746 133.537C164.825 132.953 164.899 132.37 164.975 131.783L165.097 130.851C165.169 130.297 165.24 129.742 165.311 129.187C165.382 128.632 165.454 128.078 165.527 127.523L166.882 117.233L167.429 113.028L168.134 107.603L168.166 107.346L168.837 102.133L169.794 94.7695L170.189 91.7174L170.347 90.5098L170.576 88.7506L170.61 88.4949L171.673 80.3039L172.447 74.3329L172.531 73.6941L173.041 69.7734L173.528 66.0222L173.74 64.3942L174.685 57.1303L175.091 53.9843L175.187 53.268L177.474 35.6622L177.5 35.4544L178.514 27.6494C178.524 27.567 178.535 27.4875 178.546 27.4061C178.556 27.3247 178.567 27.2433 178.579 27.161V27.1437C178.739 26.0529 178.893 24.9181 178.781 23.7287ZM176.404 26.8593C176.381 27.0298 176.358 27.1974 176.335 27.3697L175.515 33.6722L175.252 35.6976L173.017 52.9041L172.73 55.1335L171.826 62.0929L171.206 66.8678L171.111 67.5918L171.104 67.6589L170.479 72.4405L170.474 72.4846L168.648 86.5518L168.296 89.2591L168.253 89.5981L167.922 92.1608L166.148 105.797L165.974 107.156L165.52 110.633L165.493 110.842L164.833 115.926L164.901 115.263L163.444 126.467L163.348 127.242C163.203 128.351 163.059 129.461 162.916 130.571C162.725 132.048 162.533 133.525 162.342 135.001C162.307 135.273 162.271 135.543 162.234 135.815C162.196 136.087 162.16 136.382 162.124 136.662V136.679C161.741 139.565 159.913 142.008 157.355 143.054C156.243 143.515 155.03 143.68 153.834 143.533L153.726 143.52L145.405 142.437L106.543 137.389L106.181 137.344C105.854 137.303 105.524 137.268 105.201 137.234C104.914 137.205 104.626 137.173 104.339 137.139C104.189 137.122 104.04 137.103 103.893 137.082L103.769 137.067C102.825 136.937 102.109 136.767 101.516 136.538C99.9133 135.912 98.5919 134.727 97.7957 133.202C96.9799 131.676 96.661 129.837 96.7932 128.769L102.889 81.9837L106.125 57.024L107.881 43.5141L111.041 19.1951C111.311 17.1686 111.577 15.8107 112.094 14.694C112.277 14.3006 112.496 13.9254 112.75 13.5736C114.339 11.3767 116.963 10.2083 119.586 10.5224L119.708 10.5377C119.965 10.5693 120.217 10.6048 120.474 10.6335C120.608 10.6536 120.741 10.6709 120.874 10.6871L132.939 12.2606C133.54 12.3402 134.088 12.6469 134.471 13.1177C134.854 13.5937 135.406 13.9027 136.012 13.9796L153 16.1344C153.589 16.2088 154.183 16.0602 154.667 15.7178L154.677 15.7101C155.163 15.3662 155.761 15.2178 156.352 15.2945L169.64 17.0269C169.736 17.0384 169.823 17.0499 169.914 17.0643C170.605 17.16 171.341 17.2884 172.042 17.5795C174.544 18.6157 176.33 21.1181 176.585 23.9528C176.672 24.8884 176.541 25.8451 176.404 26.8593Z" fill="#2C2C2B"/>
<path d="M176.397 26.86C176.374 27.0305 176.351 27.1981 176.328 27.3704L175.509 33.6729L175.245 35.6983L173.011 52.9048L172.723 55.1342L171.819 62.0936L171.2 66.8686L171.104 67.5926L171.098 67.6596L170.472 72.4412L170.467 72.4853L168.642 86.5525L168.289 89.2598L168.246 89.5988L167.916 92.1616L166.141 105.798L165.967 107.157L165.513 110.634L165.487 110.843L164.827 115.927L164.895 115.263L163.438 126.468L163.342 127.243C163.196 128.352 163.052 129.461 162.91 130.572C162.718 132.049 162.527 133.526 162.335 135.002C162.301 135.274 162.265 135.544 162.227 135.816C162.19 136.088 162.153 136.383 162.117 136.663V136.68C161.734 139.565 159.906 142.008 157.349 143.055C156.236 143.516 155.023 143.681 153.828 143.534L153.72 143.52L145.398 142.437L106.537 137.389L106.175 137.344C105.848 137.304 105.517 137.269 105.195 137.235C104.907 137.206 104.62 137.174 104.333 137.139C104.182 137.123 104.033 137.104 103.887 137.083L103.762 137.068C102.819 136.937 102.103 136.768 101.509 136.539C99.9068 135.913 98.5854 134.728 97.7892 133.202C96.9734 131.677 96.6546 129.838 96.7867 128.769L102.882 81.9844L106.119 57.0247L107.875 43.5148L111.034 19.1958C111.304 17.1694 111.571 15.8114 112.088 14.6947C112.27 14.3013 112.49 13.9261 112.743 13.5743C114.333 11.3774 116.956 10.209 119.579 10.5231L119.702 10.5384C119.958 10.5701 120.211 10.6055 120.468 10.6342C120.602 10.6543 120.735 10.6716 120.868 10.6878L132.932 12.2613C133.534 12.3409 134.082 12.6476 134.464 13.1184C134.847 13.5944 135.4 13.9034 136.006 13.9803L152.994 16.1351C153.582 16.2095 154.177 16.0609 154.661 15.7185L154.671 15.7108C155.157 15.3669 155.755 15.2185 156.345 15.2952L169.634 17.0276C169.729 17.0391 169.816 17.0506 169.907 17.065C170.599 17.1607 171.335 17.2891 172.036 17.5802C174.538 18.6164 176.324 21.1188 176.578 23.9535C176.665 24.8891 176.534 25.8458 176.397 26.86Z" fill="#7A81CD"/>
<g style="mix-blend-mode:multiply">
<path d="M114.605 26.8885L120.234 27.6029L121.819 27.804C122.953 27.9477 123.179 26.1836 122.043 26.04L120.089 25.792L114.823 25.1216C113.688 24.9779 113.463 26.742 114.6 26.8856L114.605 26.8885Z" fill="#C9C9C9"/>
<path d="M114.159 30.3964L119.788 31.1108L121.374 31.3119C122.508 31.4556 122.734 29.6916 121.597 29.5479L119.645 29.2999L114.378 28.6295C113.244 28.4849 113.018 30.2489 114.154 30.3926L114.159 30.3964Z" fill="#C9C9C9"/>
<path d="M113.717 33.9091L119.346 34.6226L120.931 34.8237C122.067 34.9673 122.292 33.2042 121.155 33.0596L119.202 32.8116L113.94 32.1412C112.806 31.9966 112.581 33.7606 113.717 33.9053V33.9091Z" fill="#C9C9C9"/>
</g>
<g style="mix-blend-mode:multiply">
<path d="M140.157 68.3331L110.164 64.5302C109.851 64.4903 109.567 64.3279 109.374 64.0787C109.181 63.8294 109.095 63.5137 109.134 63.201L111.659 43.2815C111.679 43.1264 111.729 42.9767 111.807 42.841C111.884 42.7052 111.988 42.5862 112.111 42.4905C112.235 42.3949 112.376 42.3246 112.527 42.2837C112.678 42.2427 112.835 42.232 112.99 42.252L142.982 46.0549C143.137 46.0744 143.287 46.1243 143.423 46.2016C143.558 46.279 143.677 46.3824 143.773 46.5058C143.869 46.6292 143.939 46.7703 143.981 46.9211C144.022 47.0718 144.033 47.2291 144.013 47.3841L141.488 67.3036C141.468 67.4588 141.418 67.6085 141.341 67.7443C141.263 67.8801 141.16 67.9992 141.036 68.0949C140.912 68.1905 140.771 68.2608 140.62 68.3017C140.469 68.3426 140.312 68.3533 140.157 68.3331Z" fill="#C9C9C9"/>
<path d="M148.748 51.0234L160.184 52.4733L161.811 52.6801C162.813 52.8065 163.883 52.0481 163.969 51.008C164.054 49.968 163.37 48.9864 162.297 48.8504L150.862 47.3995L149.235 47.1936C148.233 47.0663 147.162 47.8257 147.077 48.8657C146.993 49.9058 147.676 50.8864 148.749 51.0234H148.748Z" fill="#C9C9C9"/>
<path d="M147.531 56.3984L165.715 58.7083L168.3 59.0358C170.148 59.2705 170.515 56.3984 168.664 56.1628L150.481 53.8568L147.895 53.5292C146.048 53.2946 145.68 56.1667 147.531 56.4022V56.3984Z" fill="#C9C9C9"/>
<path d="M146.773 62.324L164.957 64.6301L167.542 64.9576C169.39 65.1922 169.757 62.3202 167.906 62.0846L149.723 59.7785L147.138 59.451C145.29 59.2173 144.922 62.0884 146.773 62.324Z" fill="#C9C9C9"/>
<path d="M146.022 68.248L164.205 70.5541L166.791 70.8816C168.638 71.1152 169.005 68.2432 167.154 68.0086L148.972 65.7035L146.387 65.3769C144.539 65.1423 144.172 68.0143 146.023 68.2499L146.022 68.248Z" fill="#C9C9C9"/>
<path d="M133.754 92.7517L163.746 96.5546C164.059 96.5943 164.343 96.7566 164.536 97.0059C164.729 97.2551 164.816 97.571 164.776 97.8839L162.25 117.803C162.231 117.958 162.181 118.108 162.104 118.243C162.026 118.379 161.923 118.498 161.8 118.593C161.676 118.689 161.535 118.759 161.385 118.801C161.234 118.842 161.077 118.853 160.922 118.833L130.929 115.03C130.617 114.99 130.333 114.828 130.14 114.578C129.947 114.329 129.86 114.013 129.9 113.701L132.425 93.7812C132.445 93.6263 132.495 93.4768 132.572 93.3412C132.649 93.2056 132.753 93.0867 132.876 92.991C133 92.8954 133.141 92.8251 133.291 92.784C133.442 92.743 133.599 92.732 133.754 92.7517Z" fill="#C9C9C9"/>
<path d="M126.379 104.685L108.199 102.38L105.614 102.053C103.766 101.818 103.398 104.69 105.25 104.926L123.433 107.232L126.018 107.559C127.866 107.794 128.233 104.922 126.382 104.686L126.379 104.685Z" fill="#C9C9C9"/>
<path d="M127.132 98.7644L108.949 96.4583L106.364 96.1308C104.516 95.8962 104.149 98.7682 106 99.0038L124.191 101.309L126.777 101.636C128.625 101.871 128.992 98.999 127.141 98.7634L127.132 98.7644Z" fill="#C9C9C9"/>
<path d="M125.625 110.607L107.442 108.301L104.856 107.975C103.008 107.74 102.641 110.612 104.492 110.848L122.676 113.154L125.261 113.481C127.109 113.715 127.475 110.843 125.625 110.608V110.607Z" fill="#C9C9C9"/>
<path d="M127.883 92.8424L109.699 90.5363L107.114 90.2088C105.266 89.9752 104.899 92.8472 106.75 93.0818L124.937 95.3917L127.522 95.7183C129.37 95.9529 129.738 93.0809 127.887 92.8453L127.883 92.8424Z" fill="#C9C9C9"/>
<path d="M108.107 75.5701L118.651 76.9108L135.384 79.032L139.24 79.5214C140.241 79.6488 141.313 78.8893 141.397 77.8493C141.481 76.8093 140.798 75.8277 139.725 75.6917L129.181 74.3509L112.449 72.2287L108.586 71.7403C107.585 71.6139 106.513 72.3724 106.429 73.4124C106.345 74.4525 107.027 75.4341 108.101 75.5701H108.107Z" fill="#C9C9C9"/>
<path d="M106.769 81.8855L112.504 82.6124L126.277 84.3591L142.943 86.4727L157.356 88.3019C159.69 88.5978 162.029 88.9722 164.372 89.1915C164.406 89.1915 164.439 89.2002 164.473 89.204C166.321 89.4386 166.688 86.5666 164.837 86.331L159.102 85.6041L145.33 83.8573L128.663 81.7438L114.249 79.9127C111.916 79.6168 109.576 79.2423 107.233 79.023C107.2 79.023 107.166 79.0144 107.138 79.0096C105.29 78.7759 104.922 81.648 106.773 81.8826L106.769 81.8855Z" fill="#C9C9C9"/>
<path d="M101.714 121.69L107.448 122.418L121.219 124.165L137.885 126.279L152.3 128.106C154.633 128.402 156.972 128.776 159.315 128.995L159.411 129.009C161.259 129.243 161.626 126.371 159.775 126.136L154.04 125.408L140.273 123.662L123.613 121.549L109.199 119.721C106.865 119.425 104.526 119.051 102.183 118.831C102.149 118.831 102.116 118.823 102.082 118.818C100.234 118.584 99.8677 121.456 101.719 121.691L101.714 121.69Z" fill="#C9C9C9"/>
<path d="M100.977 127.546L106.711 128.273L120.484 130.019L137.15 132.133L151.564 133.961C153.898 134.257 156.237 134.632 158.58 134.851C158.614 134.851 158.647 134.86 158.676 134.863C160.524 135.098 160.891 132.226 159.04 131.99L153.305 131.263L139.533 129.517L122.871 127.404L108.457 125.576C106.123 125.28 103.784 124.906 101.441 124.686C101.408 124.686 101.374 124.678 101.341 124.674C99.4926 124.439 99.125 127.311 100.977 127.547V127.546Z" fill="#C9C9C9"/>
</g>
<path d="M181.716 107.606C180.787 110.99 177.73 113.544 174.704 115.727C172.631 117.223 169.879 118.732 167.529 118.09C166.115 117.707 165.093 116.541 164.389 115.245C163.971 114.479 163.636 113.617 163.684 112.671C163.802 110.351 165.982 107.477 167.317 105.584C169.084 103.081 171.159 100.781 173.525 98.8802C174.494 98.0987 175.569 97.3594 176.721 97.1995C178.55 96.9457 180.803 98.7787 181.47 100.443C182.29 102.49 182.354 105.282 181.716 107.606Z" fill="#FFC696"/>
<path d="M170.562 116.247L166.102 111.488C165.925 111.296 168.76 108.371 168.974 108.208C169.623 107.707 170.41 107.376 171.144 107.474C171.844 107.57 172.432 108.039 172.867 108.624C174.914 111.382 172.94 114.319 170.562 116.247Z" fill="#FFDABD"/>
<path d="M186.807 84.5783C186.903 88.1514 185.215 91.5329 182.441 94.0679C180.54 95.8051 177.85 97.617 174.876 97.1765C173.091 96.9121 171.49 95.8099 170.215 94.541C169.459 93.7873 168.768 92.9302 168.492 91.9552C167.822 89.5611 169.368 86.3893 170.267 84.3159C171.458 81.5703 173.082 79.0066 175.181 76.8231C176.043 75.9267 177.041 75.0648 178.331 74.7919C180.38 74.3581 182.657 75.5695 184.017 77.2215C185.694 79.2527 186.742 82.1248 186.807 84.5783Z" fill="#FFC696"/>
<path d="M177.604 95.1583L170.448 90.0118C170.161 89.8078 173.344 86.478 173.593 86.2913C174.359 85.7167 175.349 85.3259 176.37 85.415C177.342 85.4983 178.249 86.003 178.971 86.636C182.399 89.6402 180.392 92.9509 177.604 95.1583Z" fill="#FFDABD"/>
<path d="M187.089 61.8354C187.076 65.3366 185.444 68.744 182.845 71.3805C181.065 73.1866 178.564 75.1077 175.869 74.8358C174.249 74.671 172.822 73.676 171.697 72.499C171.026 71.7999 170.422 70.9955 170.202 70.0541C169.657 67.7356 171.159 64.5466 172.034 62.4636C173.196 59.7055 174.747 57.1007 176.725 54.8492C177.536 53.9231 178.469 53.0239 179.653 52.6868C181.531 52.1514 183.572 53.2183 184.764 54.7659C186.226 56.6697 187.095 59.4316 187.089 61.8354Z" fill="#FFC696"/>
<path d="M177.14 72.4525L171.573 66.741C171.353 66.5149 174.751 63.5586 175.005 63.3996C175.789 62.9103 176.738 62.622 177.642 62.8059C178.504 62.9802 179.23 63.5596 179.773 64.2424C182.348 67.5052 180.004 70.5573 177.14 72.4525Z" fill="#FFDABD"/>
<g style="mix-blend-mode:multiply">
<path d="M148.377 87.1179C148.712 84.5624 148.02 81.9781 146.451 79.9335C144.882 77.8888 142.565 76.5512 140.01 76.2148L68.6367 66.8249C66.0821 66.4895 63.4989 67.1827 61.4551 68.7519C59.4114 70.3212 58.0745 72.638 57.7384 75.193L55.6846 90.7867C55.5181 92.0521 55.6025 93.3379 55.9329 94.5706C56.2633 95.8034 56.8332 96.9589 57.6101 97.9714C58.3871 98.9838 59.3558 99.8333 60.4609 100.471C61.5661 101.109 62.7861 101.523 64.0512 101.69L138.397 111.472L148.47 114.728L145.701 107.45L148.377 87.1179Z" fill="#E3E3E3"/>
<path d="M215.559 33.8757L144.186 24.4857C142.921 24.3189 141.635 24.403 140.402 24.7332C139.169 25.0635 138.013 25.6334 137.001 26.4105C135.988 27.1876 135.139 28.1566 134.5 29.2622C133.862 30.3677 133.448 31.5882 133.282 32.8539L130.61 53.19L126.055 59.5029L136.627 58.9628L210.974 68.7435C212.239 68.9099 213.524 68.8255 214.757 68.4951C215.989 68.1646 217.145 67.5946 218.157 66.8175C219.169 66.0404 220.018 65.0716 220.656 63.9662C221.294 62.8609 221.708 61.6407 221.874 60.3754L223.926 44.7788C224.092 43.5134 224.008 42.2276 223.677 40.9949C223.347 39.7621 222.777 38.6065 222 37.5941C221.223 36.5816 220.255 35.7322 219.149 35.0942C218.044 34.4561 216.824 34.0421 215.559 33.8757Z" fill="#E3E3E3"/>
</g>
<path d="M213.95 67.1884L139.61 57.4077L129.031 57.944L133.587 51.632L136.258 31.2988C136.425 30.0334 136.839 28.8132 137.477 27.7079C138.115 26.6025 138.964 25.6336 139.976 24.8566C140.988 24.0795 142.144 23.5095 143.376 23.1791C144.609 22.8486 145.894 22.7642 147.16 22.9307L218.533 32.3206C219.798 32.4871 221.018 32.9011 222.123 33.5391C223.228 34.1771 224.197 35.0266 224.974 36.039C225.751 37.0515 226.321 38.2071 226.651 39.4398C226.982 40.6726 227.066 41.9583 226.899 43.2237L224.849 58.8203C224.512 61.3753 223.176 63.6921 221.132 65.2614C219.088 66.8306 216.505 67.5238 213.95 67.1884Z" fill="white"/>
<path d="M161.805 43.1964C161.477 42.9242 161.085 42.7402 160.667 42.6616C160.248 42.583 159.816 42.6125 159.411 42.7473C158.403 43.0877 157.331 43.1925 156.276 43.0537C155.221 42.9149 154.211 42.5362 153.326 41.9467C152.97 41.7113 152.56 41.5708 152.135 41.5385C151.709 41.5061 151.283 41.583 150.895 41.7619C148.799 42.7195 147.648 44.8063 147.346 47.1018L147.283 47.8335C147.249 48.2243 147.307 48.6177 147.451 48.9824C147.596 49.3471 147.823 49.6731 148.116 49.9346C150.03 51.6458 152.415 52.7401 154.96 53.0748C157.505 53.4095 160.092 52.9689 162.383 51.8107C162.732 51.6331 163.035 51.3767 163.268 51.0617C163.501 50.7467 163.658 50.3819 163.726 49.9959L163.853 49.2729C164.156 46.9812 163.583 44.6646 161.805 43.1964Z" fill="#DEDCE8"/>
<path d="M157.628 41.5498C160.602 41.3016 162.812 38.6888 162.564 35.714C162.316 32.7392 159.703 30.5289 156.729 30.7771C153.755 31.0253 151.545 33.6381 151.793 36.6129C152.041 39.5877 154.654 41.7981 157.628 41.5498Z" fill="#DEDCE8"/>
<path d="M215.521 54.1608L214.672 54.0497L212.381 53.7481L208.986 53.3018L204.844 52.7559L200.322 52.1612L195.726 51.5569L191.471 50.9976L187.862 50.5188L184.774 50.1118C184.365 50.0582 183.956 49.9997 183.547 49.9509L183.493 49.9442C183.055 49.8858 182.584 50.2162 182.545 50.672C182.519 50.8938 182.581 51.1166 182.717 51.2936C182.853 51.4706 183.052 51.588 183.273 51.6211L184.122 51.7322L186.903 52.1028L190.298 52.5491L194.441 53.094L198.963 53.6896L203.559 54.2939L207.814 54.8532L211.423 55.332L214.018 55.6739C214.426 55.7276 214.834 55.786 215.244 55.8348L215.298 55.8415C215.736 55.8999 216.206 55.5695 216.246 55.1137C216.271 54.8921 216.209 54.6694 216.073 54.4924C215.938 54.3154 215.739 54.1979 215.518 54.1646L215.521 54.1608Z" fill="#DEDCE8"/>
<path d="M178.356 49.269L178.126 49.2384L177.501 49.156L176.578 49.0344L175.947 48.952L174.715 48.7892L173.47 48.6255L172.314 48.4732L171.329 48.3439L170.625 48.2482L170.29 48.2041H170.276C170.055 48.1805 169.833 48.2429 169.657 48.3784C169.48 48.5139 169.363 48.7121 169.328 48.9319V49.1589C169.348 49.3041 169.406 49.4415 169.496 49.5573C169.634 49.7328 169.835 49.8486 170.056 49.881L170.287 49.9116L170.911 49.994L171.834 50.1146L172.96 50.2631L174.192 50.4249L175.437 50.5897L176.099 50.6768L177.083 50.8061L177.788 50.9019L178.122 50.9459H178.136C178.301 50.9702 178.469 50.9434 178.618 50.8693C178.767 50.7952 178.89 50.6772 178.97 50.5312C179.035 50.4384 179.075 50.3301 179.085 50.2171C179.085 50.1415 179.085 50.0668 179.085 49.9911C179.065 49.8461 179.008 49.7088 178.918 49.5927C178.779 49.4174 178.579 49.3016 178.357 49.269H178.356Z" fill="#DEDCE8"/>
<path d="M205.624 39.5117L214.603 40.6925C214.713 40.7072 214.825 40.7 214.933 40.6713C215.04 40.6427 215.141 40.5931 215.229 40.5255C215.317 40.4579 215.391 40.3735 215.446 40.2773C215.502 40.1811 215.538 40.0748 215.552 39.9647C215.567 39.8546 215.559 39.7427 215.531 39.6354C215.502 39.5281 215.452 39.4275 215.385 39.3394C215.317 39.2513 215.233 39.1773 215.137 39.1218C215.041 39.0662 214.935 39.0301 214.824 39.0156L207.125 38.0034C206.716 37.9488 206.307 37.8904 205.899 37.8415L205.845 37.8348C205.406 37.7764 204.935 38.1068 204.896 38.5627C204.871 38.7843 204.933 39.007 205.069 39.184C205.204 39.3609 205.403 39.4784 205.624 39.5117Z" fill="#DEDCE8"/>
<path d="M196.257 37.4244C196.228 37.6469 196.288 37.8718 196.425 38.0498C196.562 38.2277 196.763 38.3441 196.986 38.3735L198.946 38.6311L199.607 38.7182L201.296 38.9404L201.631 38.9844H201.645C201.81 39.0087 201.978 38.982 202.127 38.9078C202.276 38.8337 202.399 38.7158 202.479 38.5698C202.544 38.4772 202.584 38.3693 202.594 38.2566C202.594 38.181 202.594 38.1053 202.594 38.0297C202.574 37.8846 202.517 37.7473 202.427 37.6313C202.288 37.4559 202.088 37.3402 201.866 37.3076L200.088 37.0739L199.457 36.9906L197.207 36.6947C196.985 36.6656 196.76 36.7259 196.582 36.8623C196.404 36.9988 196.288 37.2002 196.258 37.4225L196.257 37.4244Z" fill="#DEDCE8"/>
<path d="M169.483 54.2651L170.039 54.3379L171.538 54.5352L173.759 54.8272L176.47 55.1844L179.428 55.5733L182.435 55.9688L185.219 56.3356L187.581 56.6459L192.247 57.2597C192.515 57.2952 192.782 57.3325 193.05 57.3651H193.085C193.307 57.3916 193.531 57.3316 193.711 57.1975C193.843 57.0954 193.942 56.9564 193.995 56.7981C194.049 56.6398 194.054 56.4692 194.011 56.3078C193.968 56.1465 193.877 56.0015 193.752 55.8912C193.626 55.781 193.471 55.7103 193.306 55.6882L192.75 55.6154L188.282 55.0274L186.06 54.7353L183.35 54.3791L180.392 53.9893L177.385 53.5938L174.601 53.2279L172.24 52.9167L170.536 52.6983C170.268 52.6629 170.001 52.6256 169.733 52.593L169.698 52.5882C169.476 52.5616 169.252 52.6216 169.073 52.7558C168.94 52.8576 168.841 52.9964 168.787 53.1548C168.733 53.3132 168.728 53.4839 168.771 53.6454C168.814 53.807 168.904 53.9521 169.03 54.0624C169.156 54.1727 169.311 54.2432 169.477 54.2651H169.483Z" fill="#DEDCE8"/>
<path d="M174.867 38.2109L175.786 40.9164L178.535 41.6921L176.246 43.4034L176.358 46.2582L174.025 44.6101L171.344 45.5984L172.19 42.869L170.422 40.6252L173.279 40.5869L174.867 38.2109Z" fill="#7A81CD"/>
<path d="M184.569 39.4883L185.488 42.1937L188.238 42.9694L185.949 44.6808L186.061 47.5356L183.727 45.8874L181.047 46.8757L181.894 44.1464L180.125 41.9026L182.981 41.8643L184.569 39.4883Z" fill="#7A81CD"/>
<path d="M194.273 40.7656L195.192 43.471L197.941 44.2477L195.654 45.9581L195.765 48.8129L193.431 47.1648L190.751 48.1531L191.597 45.4237L189.828 43.1799L192.685 43.1416L194.273 40.7656Z" fill="#7A81CD"/>
<path d="M203.975 42.043L204.894 44.7484L207.644 45.5251L205.356 47.2355L205.468 50.0903L203.133 48.4421L200.453 49.4304L201.3 46.702L199.531 44.4573L202.387 44.4189L203.975 42.043Z" fill="#7A81CD"/>
<path d="M213.678 43.3203L214.597 46.0248L217.346 46.8014L215.059 48.5118L215.17 51.3666L212.837 49.7185L210.156 50.7068L211.002 47.9784L209.234 45.7336L212.091 45.6953L213.678 43.3203Z" fill="#7A81CD"/>
<path d="M62.275 99.7621L136.621 109.543L146.695 112.799L143.926 105.521L146.597 85.1873C146.764 83.922 146.68 82.6362 146.349 81.4035C146.019 80.1707 145.449 79.0151 144.672 78.0027C143.895 76.9902 142.926 76.1408 141.821 75.5028C140.716 74.8647 139.496 74.4507 138.231 74.2843L66.8576 64.8991C64.3033 64.5637 61.7203 65.2566 59.6766 66.8255C57.633 68.3943 56.2959 70.7107 55.9593 73.2653L53.9112 88.8591C53.575 91.4141 54.2673 93.9982 55.8358 96.0428C57.4042 98.0875 59.7204 99.4253 62.275 99.7621Z" fill="white"/>
<path d="M133.736 92.0368C133.408 91.7644 133.016 91.5801 132.597 91.5013C132.178 91.4226 131.746 91.452 131.342 91.5867C130.334 91.9272 129.261 92.032 128.206 91.8933C127.151 91.7545 126.142 91.3757 125.256 90.7861C124.9 90.551 124.49 90.4107 124.065 90.3783C123.639 90.346 123.213 90.4227 122.825 90.6013C120.729 91.559 119.578 93.6457 119.277 95.9413L119.212 96.6729C119.179 97.0638 119.237 97.4571 119.381 97.8217C119.526 98.1864 119.753 98.5124 120.045 98.774C121.959 100.485 124.344 101.579 126.889 101.914C129.434 102.249 132.021 101.809 134.312 100.651C134.663 100.473 134.967 100.216 135.201 99.9006C135.435 99.5848 135.592 99.2187 135.659 98.8315L135.788 98.1085C136.086 95.8168 135.514 93.5002 133.736 92.0368Z" fill="#DEDCE8"/>
<path d="M130.171 90.3124C133.097 89.7264 134.995 86.8785 134.409 83.9515C133.823 81.0244 130.976 79.1265 128.049 79.7125C125.122 80.2984 123.225 83.1463 123.811 86.0734C124.397 89.0004 127.244 90.8983 130.171 90.3124Z" fill="#DEDCE8"/>
<path d="M113.35 93.2495L112.501 93.1374L110.208 92.8358L106.813 92.3895L102.673 91.8465L98.1506 91.2518L93.5546 90.6466L89.2994 90.0873L85.6906 89.6084L82.6017 89.2024C82.1928 89.1478 81.784 89.0903 81.3751 89.0405L81.3215 89.0338C80.883 88.9764 80.4119 89.3068 80.3726 89.7617C80.3476 89.9834 80.4096 90.2063 80.5455 90.3833C80.6814 90.5603 80.8806 90.6777 81.1013 90.7107L81.9496 90.8228L84.7388 91.1905L88.1341 91.6377L92.2773 92.1827L96.7986 92.7774L101.395 93.3817L105.65 93.9419L109.259 94.4207L111.853 94.7626C112.262 94.8162 112.67 94.8747 113.08 94.9235L113.134 94.9312C113.572 94.9886 114.042 94.6582 114.082 94.2024C114.106 93.9809 114.044 93.7585 113.909 93.5817C113.773 93.4049 113.574 93.2876 113.354 93.2543L113.35 93.2495Z" fill="#DEDCE8"/>
<path d="M76.1855 88.3593L75.9547 88.3287L75.3305 88.2473L74.4074 88.1257L73.7764 88.0423L72.5432 87.8805L71.2984 87.7158L70.1417 87.5635L69.1574 87.4342L68.4527 87.3385L68.1185 87.2944H68.1042C67.8826 87.2696 67.6601 87.3317 67.4833 87.4676C67.3065 87.6035 67.1893 87.8027 67.1562 88.0232V88.2502C67.1765 88.3953 67.2342 88.5326 67.3238 88.6485C67.4627 88.8235 67.663 88.9389 67.884 88.9713L68.1147 89.0019L68.739 89.0843L69.662 89.2059L70.7842 89.3563L72.0165 89.5191L73.2613 89.6828L73.9229 89.77L74.9072 89.8993L75.612 89.995L75.9461 90.0391H75.9605C76.1822 90.0588 76.4037 89.9995 76.5857 89.8715C76.7564 89.729 76.8708 89.5304 76.9084 89.3113V89.0843C76.8885 88.9391 76.8307 88.8017 76.7409 88.6859C76.6023 88.5104 76.4019 88.3946 76.1807 88.3622L76.1855 88.3593Z" fill="#DEDCE8"/>
<path d="M103.451 78.6005L112.431 79.7784C112.653 79.8075 112.878 79.7471 113.056 79.6104C113.234 79.4738 113.35 79.2721 113.38 79.0496C113.394 78.9396 113.387 78.8277 113.358 78.7205C113.33 78.6133 113.28 78.5128 113.212 78.4247C113.145 78.3366 113.061 78.2628 112.964 78.2073C112.868 78.1519 112.762 78.1159 112.652 78.1015L104.952 77.0969C104.544 77.0433 104.135 76.9849 103.726 76.9351L103.673 76.9284C103.234 76.8709 102.763 77.2013 102.724 77.6562C102.7 77.8771 102.762 78.0985 102.898 78.2745C103.034 78.4504 103.232 78.5672 103.451 78.6005Z" fill="#DEDCE8"/>
<path d="M94.0853 76.5172C94.0562 76.7395 94.1166 76.9644 94.2533 77.1422C94.3899 77.32 94.5916 77.4362 94.8139 77.4653L96.7739 77.7238L97.4356 77.81L99.1246 78.0322C99.2357 78.0475 99.3477 78.0629 99.4588 78.0763H99.4731C99.5845 78.0964 99.6993 78.0862 99.8054 78.0466C99.9116 78.0225 100.011 77.9758 100.098 77.9097C100.185 77.8436 100.256 77.7596 100.307 77.6635C100.372 77.571 100.412 77.463 100.422 77.3504C100.422 77.2747 100.422 77.199 100.422 77.1234C100.402 76.9784 100.344 76.8412 100.255 76.725C100.116 76.5497 99.9157 76.4339 99.6943 76.4013L97.9162 76.1676L97.2852 76.0843L95.0351 75.7884C94.8127 75.7593 94.5878 75.8197 94.4099 75.9564C94.2319 76.093 94.1155 76.2947 94.0862 76.5172H94.0853Z" fill="#DEDCE8"/>
<path d="M67.3083 93.35L67.8646 93.4237L69.363 93.6153L71.5845 93.9083L74.2951 94.2646L77.2538 94.6534L80.2604 95.0489L83.0448 95.4157L85.406 95.726L90.0729 96.3398C90.34 96.3753 90.6072 96.4126 90.8753 96.4461H90.9107C91.1325 96.4719 91.3558 96.4119 91.535 96.2785C91.6675 96.1766 91.7669 96.0377 91.8206 95.8793C91.8743 95.7209 91.8799 95.5502 91.8367 95.3886C91.7934 95.227 91.7033 95.0819 91.5777 94.9715C91.4521 94.8611 91.2967 94.7904 91.1309 94.7683L90.5756 94.6955L86.1079 94.1075L83.8826 93.825L81.1748 93.4726L78.2171 93.0828L75.2105 92.6873L72.4261 92.3214L70.0649 92.0102L68.3711 91.7832C68.1039 91.7478 67.8368 91.7105 67.5687 91.6779H67.5342C67.312 91.6517 67.0883 91.7117 66.909 91.8455C66.7763 91.9473 66.6768 92.0861 66.623 92.2445C66.5693 92.4028 66.5636 92.5736 66.6069 92.7351C66.6501 92.8967 66.7403 93.0418 66.866 93.1521C66.9917 93.2624 67.1473 93.3329 67.313 93.3548L67.3083 93.35Z" fill="#DEDCE8"/>
<path d="M72.686 77.3008L73.6061 80.0052L76.3551 80.7819L74.0667 82.4923L74.1787 85.3471L71.8453 83.699L69.1643 84.6873L70.0107 81.9589L68.2422 79.7141L71.0984 79.6758L72.686 77.3008Z" fill="#7A81CD"/>
<path d="M82.3969 78.5742L83.3161 81.2787L86.066 82.0553L83.7776 83.7657L83.8887 86.6206L81.5552 84.9724L78.8752 85.9607L79.7207 83.2323L77.9531 80.9875L80.8094 80.9492L82.3969 78.5742Z" fill="#7A81CD"/>
<path d="M92.101 79.8555L93.0202 82.5599L95.7692 83.3366L93.4807 85.047L93.5928 87.9018L91.2593 86.2537L88.5783 87.242L89.4248 84.5136L87.6562 82.2688L90.5134 82.2305L92.101 79.8555Z" fill="#7A81CD"/>
<path d="M101.803 81.1289L102.722 83.8343L105.472 84.61L103.184 86.3204L103.296 89.1752L100.961 87.5271L98.2815 88.5154L99.1279 85.787L97.3594 83.5422L100.216 83.5039L101.803 81.1289Z" fill="#7A81CD"/>
<path d="M111.506 82.4062L112.425 85.1117L115.174 85.8874L112.886 87.5978L112.998 90.4526L110.665 88.8044L107.985 89.7937L108.83 87.0644L107.062 84.8196L109.919 84.7813L111.506 82.4062Z" fill="#7A81CD"/>
</svg>
